# xmcd
#
# Track frame offsets:
#	150
#	10584
#	16265
#	29640
#	46924
#	69900
#	88858
#	97122
#	123463
#	138631
#
# Disc length: 1962 seconds
#
# Revision: 0
# Processed by: cddbd v1.5.2PL0 Copyright (c) Steve Scherf et al.
# Submitted via: dBpowerAMP V4.0
#
DISCID=8107a80a
DTITLE=James Brown - Godfather of Soul Disk 1/3
DYEAR=2007
DGENRE=Blues
TTITLE0=Papa's Got a Brand New Bag
TTITLE1=Cold Sweat
TTITLE2=I Got You (I Feel Good)
TTITLE3=Please, Please, Please
TTITLE4=Prisoner of Love
TTITLE5=It's a Man's, Man's, Man's World
TTITLE6=Try Me
TTITLE7=Georga On My Mind
TTITLE8=I Got the Feeling
TTITLE9=I Can't Stand Myself (When You Touch Me)
EXTD=Box set with three CDs of old, live James Brown recordings
EXTT0=
EXTT1=
EXTT2=
EXTT3=
EXTT4=
EXTT5=
EXTT6=
EXTT7=
EXTT8=
EXTT9=
PLAYORDER=
